<svg width="725" height="247" viewBox="0 0 725 247" fill="none" xmlns="http://www.w3.org/2000/svg">
<path d="M54.9 103.2H75.1V105.6L68.1 107.9V170H62.6L16.8 115.1V165.1L25.1 167.6V170H4.5V167.6L12.5 165.1V106.5L3.8 105.5V103.2H20.2L62.6 154.5V107.9L54.9 105.6V103.2ZM151.299 136.4C151.299 146.4 148.266 154.7 142.199 161.3C136.133 167.833 127.999 171.1 117.799 171.1C107.599 171.1 99.4326 167.833 93.2992 161.3C87.2326 154.7 84.1992 146.4 84.1992 136.4C84.1992 126.4 87.2326 118.133 93.2992 111.6C99.4326 105 107.599 101.7 117.799 101.7C127.999 101.7 136.133 105 142.199 111.6C148.266 118.133 151.299 126.4 151.299 136.4ZM117.899 168C132.033 168 139.099 157.467 139.099 136.4C139.099 126.267 137.466 118.467 134.199 113C130.999 107.533 125.533 104.8 117.799 104.8C110.066 104.8 104.566 107.533 101.299 113C98.0326 118.4 96.3992 126.2 96.3992 136.4C96.3992 157.467 103.566 168 117.899 168ZM198.448 106.5C194.848 105.233 191.148 104.6 187.348 104.6C183.548 104.6 180.214 105.7 177.348 107.9C174.481 110.033 173.048 113.233 173.048 117.5C173.048 121.633 174.814 124.8 178.348 127C180.281 128.2 181.848 129.067 183.048 129.6C184.314 130.133 186.114 130.833 188.448 131.7C190.848 132.567 192.481 133.2 193.348 133.6C194.214 133.933 195.481 134.5 197.148 135.3C198.881 136.033 200.148 136.7 200.948 137.3C201.814 137.9 202.848 138.733 204.048 139.8C205.248 140.867 206.148 141.933 206.748 143C208.214 145.733 208.948 148.7 208.948 151.9C208.948 157.567 206.648 162.2 202.048 165.8C197.448 169.4 191.481 171.2 184.148 171.2C178.548 171.2 173.314 170.267 168.448 168.4C166.048 167.533 164.081 166.333 162.548 164.8C161.014 163.267 160.248 161.5 160.248 159.5C160.248 156.233 162.614 154 167.348 152.8C168.081 156.8 169.481 160.033 171.548 162.5C173.614 164.967 175.748 166.6 177.948 167.4C180.214 168.2 182.948 168.6 186.148 168.6C189.414 168.6 192.481 167.567 195.348 165.5C198.214 163.367 199.648 159.9 199.648 155.1C199.648 151.433 197.981 148.433 194.648 146.1C191.981 144.3 188.681 142.6 184.748 141C180.881 139.4 178.281 138.333 176.948 137.8C175.614 137.2 173.881 136.3 171.748 135.1C169.681 133.833 168.148 132.6 167.148 131.4C164.548 128.267 163.248 124.667 163.248 120.6C163.248 114.333 165.481 109.6 169.948 106.4C174.414 103.2 180.581 101.6 188.448 101.6C193.181 101.6 198.681 102.133 204.948 103.2V117.9H201.848L198.448 106.5ZM282.272 102.5C282.272 102.5 289.139 102.8 302.872 103.4L303.472 121.6H300.272L296.872 108.5C293.272 106.967 289.005 106.2 284.072 106.2C276.005 106.2 269.305 108.867 263.972 114.2C258.705 119.467 256.072 127.167 256.072 137.3C256.072 147.433 258.639 154.933 263.772 159.8C268.972 164.6 275.605 167 283.672 167C289.072 167 293.905 166.2 298.172 164.6L301.872 153.1L304.672 153.2L304.072 168.2C296.405 169.8 289.805 170.6 284.272 170.6C278.805 170.6 274.272 170.3 270.672 169.7C267.139 169.1 263.672 168.033 260.272 166.5C256.872 164.967 253.972 163 251.572 160.6C249.239 158.2 247.339 155.1 245.872 151.3C244.472 147.433 243.772 142.733 243.772 137.2C243.772 131.667 244.839 126.567 246.972 121.9C249.172 117.167 252.139 113.433 255.872 110.7C263.272 105.233 272.072 102.5 282.272 102.5ZM379.373 170H352.373V167.9L360.173 166.7L351.373 143.7H328.873L320.473 165L329.373 167.6V170H308.473V167.6L316.073 165L340.673 103.2H345.573L371.673 166.7L379.373 167.6V170ZM349.873 140L340.073 115.7L330.273 140H349.873ZM419.248 106.5C415.648 105.233 411.948 104.6 408.148 104.6C404.348 104.6 401.015 105.7 398.148 107.9C395.282 110.033 393.848 113.233 393.848 117.5C393.848 121.633 395.615 124.8 399.148 127C401.082 128.2 402.648 129.067 403.848 129.6C405.115 130.133 406.915 130.833 409.248 131.7C411.648 132.567 413.282 133.2 414.148 133.6C415.015 133.933 416.282 134.5 417.948 135.3C419.682 136.033 420.948 136.7 421.748 137.3C422.615 137.9 423.648 138.733 424.848 139.8C426.048 140.867 426.948 141.933 427.548 143C429.015 145.733 429.748 148.7 429.748 151.9C429.748 157.567 427.448 162.2 422.848 165.8C418.248 169.4 412.282 171.2 404.948 171.2C399.348 171.2 394.115 170.267 389.248 168.4C386.848 167.533 384.882 166.333 383.348 164.8C381.815 163.267 381.048 161.5 381.048 159.5C381.048 156.233 383.415 154 388.148 152.8C388.882 156.8 390.282 160.033 392.348 162.5C394.415 164.967 396.548 166.6 398.748 167.4C401.015 168.2 403.748 168.6 406.948 168.6C410.215 168.6 413.282 167.567 416.148 165.5C419.015 163.367 420.448 159.9 420.448 155.1C420.448 151.433 418.782 148.433 415.448 146.1C412.782 144.3 409.482 142.6 405.548 141C401.682 139.4 399.082 138.333 397.748 137.8C396.415 137.2 394.682 136.3 392.548 135.1C390.482 133.833 388.948 132.6 387.948 131.4C385.348 128.267 384.048 124.667 384.048 120.6C384.048 114.333 386.282 109.6 390.748 106.4C395.215 103.2 401.382 101.6 409.248 101.6C413.982 101.6 419.482 102.133 425.748 103.2V117.9H422.648L419.248 106.5ZM502.908 170H475.908V167.9L483.708 166.7L474.908 143.7H452.408L444.008 165L452.908 167.6V170H432.008V167.6L439.608 165L464.208 103.2H469.108L495.208 166.7L502.908 167.6V170ZM473.408 140L463.608 115.7L453.808 140H473.408ZM586.484 103.2V105.5L577.984 106.5L580.184 167L587.884 167.6V170H562.484V167.9L570.084 167L567.484 115.4L547.384 170H542.084L518.084 115.9L516.184 165.1L524.584 167.6V170H504.084V167.6L512.384 164.7L514.384 106.5L505.884 105.5V103.2H523.584L547.384 158.9L567.884 103.2H586.484ZM662.725 136.4C662.725 146.4 659.692 154.7 653.625 161.3C647.558 167.833 639.425 171.1 629.225 171.1C619.025 171.1 610.858 167.833 604.725 161.3C598.658 154.7 595.625 146.4 595.625 136.4C595.625 126.4 598.658 118.133 604.725 111.6C610.858 105 619.025 101.7 629.225 101.7C639.425 101.7 647.558 105 653.625 111.6C659.692 118.133 662.725 126.4 662.725 136.4ZM629.325 168C643.458 168 650.525 157.467 650.525 136.4C650.525 126.267 648.892 118.467 645.625 113C642.425 107.533 636.958 104.8 629.225 104.8C621.492 104.8 615.992 107.533 612.725 113C609.458 118.4 607.825 126.2 607.825 136.4C607.825 157.467 614.992 168 629.325 168ZM709.873 106.5C706.273 105.233 702.573 104.6 698.773 104.6C694.973 104.6 691.64 105.7 688.773 107.9C685.907 110.033 684.473 113.233 684.473 117.5C684.473 121.633 686.24 124.8 689.773 127C691.707 128.2 693.273 129.067 694.473 129.6C695.74 130.133 697.54 130.833 699.873 131.7C702.273 132.567 703.907 133.2 704.773 133.6C705.64 133.933 706.907 134.5 708.573 135.3C710.307 136.033 711.573 136.7 712.373 137.3C713.24 137.9 714.273 138.733 715.473 139.8C716.673 140.867 717.573 141.933 718.173 143C719.64 145.733 720.373 148.7 720.373 151.9C720.373 157.567 718.073 162.2 713.473 165.8C708.873 169.4 702.907 171.2 695.573 171.2C689.973 171.2 684.74 170.267 679.873 168.4C677.473 167.533 675.507 166.333 673.973 164.8C672.44 163.267 671.673 161.5 671.673 159.5C671.673 156.233 674.04 154 678.773 152.8C679.507 156.8 680.907 160.033 682.973 162.5C685.04 164.967 687.173 166.6 689.373 167.4C691.64 168.2 694.373 168.6 697.573 168.6C700.84 168.6 703.907 167.567 706.773 165.5C709.64 163.367 711.073 159.9 711.073 155.1C711.073 151.433 709.407 148.433 706.073 146.1C703.407 144.3 700.107 142.6 696.173 141C692.307 139.4 689.707 138.333 688.373 137.8C687.04 137.2 685.307 136.3 683.173 135.1C681.107 133.833 679.573 132.6 678.573 131.4C675.973 128.267 674.673 124.667 674.673 120.6C674.673 114.333 676.907 109.6 681.373 106.4C685.84 103.2 692.007 101.6 699.873 101.6C704.607 101.6 710.107 102.133 716.373 103.2V117.9H713.273L709.873 106.5Z" fill="white"/>
<path d="M298.906 16.25C298.854 16.6406 298.685 16.9531 298.398 17.1875C298.112 17.4219 297.786 17.5391 297.422 17.5391C297.37 17.5391 297.279 17.5391 297.148 17.5391C297.018 17.513 296.719 17.5 296.25 17.5C295.755 17.5 295.117 17.5521 294.336 17.6562C293.581 17.7604 292.734 17.9818 291.797 18.3203C290.885 18.6328 289.922 19.1016 288.906 19.7266C287.917 20.3516 286.94 21.1979 285.977 22.2656C285.013 23.3073 284.102 24.6094 283.242 26.1719C282.383 27.7083 281.654 29.5703 281.055 31.7578C280.742 32.8516 280.378 34.4271 279.961 36.4844C279.57 38.5156 279.141 40.8073 278.672 43.3594C278.229 45.9115 277.773 48.6328 277.305 51.5234C276.862 54.4141 276.432 57.2526 276.016 60.0391C275.625 62.8255 275.26 65.4818 274.922 68.0078C274.583 70.5078 274.323 72.6562 274.141 74.4531C274.089 74.7917 273.932 75.0911 273.672 75.3516C273.438 75.638 273.138 75.7812 272.773 75.7812C272.409 75.7812 272.083 75.6901 271.797 75.5078C271.536 75.3255 271.354 75.0521 271.25 74.6875C270.911 73.4375 270.378 71.7057 269.648 69.4922C268.919 67.2786 268.073 64.7917 267.109 62.0312C266.172 59.2448 265.143 56.2891 264.023 53.1641C262.904 50.0391 261.784 46.9531 260.664 43.9062C259.57 40.8333 258.503 37.9036 257.461 35.1172C256.445 32.3047 255.547 29.8307 254.766 27.6953C254.635 29.1536 254.427 30.7812 254.141 32.5781C253.88 34.349 253.516 36.263 253.047 38.3203C252.604 40.3516 252.044 42.513 251.367 44.8047C250.69 47.0703 249.883 49.4271 248.945 51.875C247.487 55.625 245.768 58.8281 243.789 61.4844C241.836 64.1406 239.779 66.3542 237.617 68.125C235.456 69.8958 233.255 71.3021 231.016 72.3438C228.802 73.3594 226.719 74.1276 224.766 74.6484C222.812 75.1693 221.055 75.4948 219.492 75.625C217.93 75.7812 216.732 75.8594 215.898 75.8594C213.034 75.8594 210.391 75.4818 207.969 74.7266C205.573 73.9714 203.49 72.9036 201.719 71.5234C199.974 70.1172 198.607 68.4505 197.617 66.5234C196.654 64.5703 196.172 62.4219 196.172 60.0781C196.172 57.9688 196.641 56.0026 197.578 54.1797C198.542 52.3307 199.818 50.7292 201.406 49.375C203.021 48.0208 204.857 46.9531 206.914 46.1719C208.997 45.3906 211.159 45 213.398 45C215.247 45 216.901 45.1823 218.359 45.5469C219.844 45.9115 221.146 46.3802 222.266 46.9531C223.411 47.5 224.388 48.099 225.195 48.75C226.029 49.401 226.706 50.026 227.227 50.625C227.773 51.1979 228.177 51.6927 228.438 52.1094C228.724 52.526 228.893 52.7734 228.945 52.8516C229.049 53.0599 229.102 53.2943 229.102 53.5547C229.102 53.9193 228.958 54.2578 228.672 54.5703C228.411 54.8828 228.06 55.0391 227.617 55.0391C227.044 55.0391 226.615 54.7786 226.328 54.2578C226.302 54.1797 226.042 53.8151 225.547 53.1641C225.078 52.487 224.336 51.7578 223.32 50.9766C222.331 50.1953 221.042 49.4922 219.453 48.8672C217.865 48.2161 215.938 47.8906 213.672 47.8906C211.823 47.8906 210.013 48.2031 208.242 48.8281C206.497 49.4531 204.948 50.3125 203.594 51.4062C202.24 52.5 201.146 53.8021 200.312 55.3125C199.505 56.7969 199.102 58.4115 199.102 60.1562C199.102 62.0573 199.544 63.8021 200.43 65.3906C201.315 66.9531 202.513 68.2943 204.023 69.4141C205.56 70.5339 207.331 71.4062 209.336 72.0312C211.367 72.6302 213.529 72.9297 215.82 72.9297C216.706 72.9297 217.878 72.8646 219.336 72.7344C220.794 72.6042 222.422 72.3047 224.219 71.8359C226.042 71.3672 227.956 70.6641 229.961 69.7266C231.966 68.763 233.945 67.4609 235.898 65.8203C237.852 64.1797 239.714 62.1354 241.484 59.6875C243.281 57.2396 244.857 54.2708 246.211 50.7812C247.617 47.1875 248.711 43.776 249.492 40.5469C250.299 37.2917 250.898 34.362 251.289 31.7578C251.68 29.1536 251.914 26.9401 251.992 25.1172C252.096 23.2682 252.148 21.9531 252.148 21.1719V20.3906C252.148 19.974 252.279 19.6224 252.539 19.3359C252.826 19.0234 253.19 18.8672 253.633 18.8672C254.284 18.8672 254.74 19.1927 255 19.8438C255.078 20.026 255.299 20.638 255.664 21.6797C256.055 22.7214 256.549 24.0755 257.148 25.7422C257.773 27.3828 258.477 29.2839 259.258 31.4453C260.065 33.6068 260.911 35.9115 261.797 38.3594C262.682 40.7812 263.594 43.2943 264.531 45.8984C265.469 48.5026 266.38 51.0677 267.266 53.5938C268.177 56.1198 269.036 58.5547 269.844 60.8984C270.651 63.2422 271.38 65.3776 272.031 67.3047C272.318 65.2214 272.63 63.0208 272.969 60.7031C273.307 58.3594 273.659 56.0026 274.023 53.6328C274.414 51.237 274.792 48.8932 275.156 46.6016C275.547 44.3099 275.924 42.1615 276.289 40.1562C276.68 38.151 277.031 36.3542 277.344 34.7656C277.656 33.1771 277.943 31.901 278.203 30.9375C278.776 28.6458 279.596 26.5104 280.664 24.5312C281.732 22.526 283.021 20.7812 284.531 19.2969C286.068 17.8125 287.812 16.6536 289.766 15.8203C291.745 14.9609 293.932 14.5312 296.328 14.5312C297.24 14.5312 297.891 14.6354 298.281 14.8438C298.698 15.0521 298.906 15.4557 298.906 16.0547V16.25ZM293.086 44.3359C293.086 45.3255 292.734 46.1719 292.031 46.875C291.354 47.5521 290.521 47.8906 289.531 47.8906C288.542 47.8906 287.695 47.5521 286.992 46.875C286.315 46.1719 285.977 45.3255 285.977 44.3359C285.977 43.8411 286.068 43.3854 286.25 42.9688C286.432 42.526 286.68 42.1484 286.992 41.8359C287.331 41.4974 287.708 41.237 288.125 41.0547C288.568 40.8724 289.036 40.7812 289.531 40.7812C290.026 40.7812 290.482 40.8724 290.898 41.0547C291.341 41.237 291.719 41.4974 292.031 41.8359C292.37 42.1484 292.63 42.526 292.812 42.9688C292.995 43.3854 293.086 43.8411 293.086 44.3359ZM286.758 67.2266C286.758 63.4766 286.992 59.7396 287.461 56.0156C287.513 55.651 287.669 55.3385 287.93 55.0781C288.216 54.7917 288.581 54.6484 289.023 54.6484C289.414 54.6484 289.74 54.8047 290 55.1172C290.26 55.4036 290.391 55.7422 290.391 56.1328C290.391 56.2891 290.352 56.7578 290.273 57.5391C290.221 58.3203 290.143 59.2578 290.039 60.3516C289.961 61.4193 289.883 62.5651 289.805 63.7891C289.753 64.987 289.727 66.0938 289.727 67.1094C289.727 68.4896 289.857 69.6094 290.117 70.4688C290.404 71.3021 290.755 71.9531 291.172 72.4219C291.615 72.8906 292.07 73.2031 292.539 73.3594C293.034 73.5156 293.503 73.5938 293.945 73.5938C294.674 73.5938 295.43 73.3333 296.211 72.8125C296.992 72.2917 297.786 71.5625 298.594 70.625C299.427 69.6875 300.26 68.5677 301.094 67.2656C301.927 65.9375 302.747 64.4661 303.555 62.8516C303.685 62.5911 303.867 62.3958 304.102 62.2656C304.336 62.1094 304.596 62.0312 304.883 62.0312C305.299 62.0312 305.638 62.1875 305.898 62.5C306.185 62.8125 306.328 63.151 306.328 63.5156C306.328 63.776 306.276 63.9974 306.172 64.1797C305.859 64.7786 305.469 65.5078 305 66.3672C304.531 67.2266 303.997 68.112 303.398 69.0234C302.799 69.9349 302.135 70.8464 301.406 71.7578C300.703 72.6432 299.948 73.4505 299.141 74.1797C298.333 74.8828 297.487 75.4557 296.602 75.8984C295.716 76.3411 294.818 76.5625 293.906 76.5625C292.734 76.5625 291.706 76.3151 290.82 75.8203C289.935 75.3255 289.18 74.6615 288.555 73.8281C287.956 72.9948 287.5 72.0182 287.188 70.8984C286.901 69.7526 286.758 68.5286 286.758 67.2266ZM290.898 44.3359C290.898 43.9714 290.755 43.6589 290.469 43.3984C290.208 43.112 289.896 42.9688 289.531 42.9688C289.167 42.9688 288.854 43.112 288.594 43.3984C288.333 43.6589 288.203 43.9714 288.203 44.3359C288.203 44.7005 288.333 45.013 288.594 45.2734C288.854 45.5339 289.167 45.6641 289.531 45.6641C289.896 45.6641 290.208 45.5339 290.469 45.2734C290.755 45.013 290.898 44.7005 290.898 44.3359ZM329.062 64.1797C328.906 64.4661 328.633 64.987 328.242 65.7422C327.878 66.4974 327.37 67.3568 326.719 68.3203C326.094 69.2578 325.339 70.2344 324.453 71.25C323.568 72.2656 322.552 73.2031 321.406 74.0625C320.26 74.8958 318.971 75.5859 317.539 76.1328C316.133 76.6797 314.596 76.9531 312.93 76.9531C311.445 76.9531 310.13 76.6797 308.984 76.1328C307.839 75.612 306.862 74.8698 306.055 73.9062C305.247 72.9167 304.635 71.7578 304.219 70.4297C303.802 69.1016 303.594 67.6302 303.594 66.0156C303.594 64.4531 303.815 62.9948 304.258 61.6406C304.701 60.2604 305.299 59.0625 306.055 58.0469C306.836 57.0312 307.734 56.237 308.75 55.6641C309.766 55.0651 310.846 54.7656 311.992 54.7656C312.852 54.7656 313.633 54.9219 314.336 55.2344C315.039 55.5208 315.625 55.9115 316.094 56.4062C316.589 56.901 316.966 57.4479 317.227 58.0469C317.513 58.6458 317.656 59.2448 317.656 59.8438C317.656 60.4167 317.578 60.9505 317.422 61.4453C317.292 61.9401 317.109 62.3828 316.875 62.7734C316.667 63.138 316.419 63.4375 316.133 63.6719C315.846 63.8802 315.56 63.9844 315.273 63.9844C314.831 63.9844 314.466 63.8411 314.18 63.5547C313.919 63.2682 313.789 62.9167 313.789 62.5C313.789 62.2917 313.828 62.1094 313.906 61.9531C314.01 61.7969 314.115 61.6406 314.219 61.4844C314.349 61.3021 314.453 61.0938 314.531 60.8594C314.635 60.599 314.688 60.2734 314.688 59.8828C314.688 59.3359 314.427 58.8411 313.906 58.3984C313.411 57.9557 312.773 57.7344 311.992 57.7344C311.263 57.7344 310.56 57.9557 309.883 58.3984C309.232 58.8411 308.659 59.4401 308.164 60.1953C307.669 60.9245 307.266 61.7969 306.953 62.8125C306.667 63.8021 306.523 64.8568 306.523 65.9766C306.523 67.0443 306.654 68.0599 306.914 69.0234C307.174 69.987 307.565 70.8464 308.086 71.6016C308.607 72.3307 309.258 72.9167 310.039 73.3594C310.846 73.8021 311.797 74.0234 312.891 74.0234C314.297 74.0234 315.599 73.776 316.797 73.2812C317.995 72.7604 319.089 72.1094 320.078 71.3281C321.068 70.5469 321.94 69.7005 322.695 68.7891C323.451 67.8516 324.089 66.9792 324.609 66.1719C325.156 65.3385 325.573 64.6224 325.859 64.0234C326.172 63.3984 326.354 63.0078 326.406 62.8516C326.51 62.5911 326.68 62.3958 326.914 62.2656C327.174 62.1094 327.448 62.0312 327.734 62.0312C328.177 62.0312 328.529 62.1875 328.789 62.5C329.076 62.8125 329.219 63.1641 329.219 63.5547C329.219 63.7109 329.167 63.9193 329.062 64.1797ZM344.414 70.7031C343.763 70.7031 343.19 70.651 342.695 70.5469C342.305 71.3281 341.836 72.0573 341.289 72.7344C340.742 73.3854 340.104 73.9583 339.375 74.4531C338.672 74.9479 337.878 75.3385 336.992 75.625C336.107 75.9115 335.143 76.0547 334.102 76.0547C332.878 76.0547 331.758 75.8333 330.742 75.3906C329.727 74.974 328.841 74.388 328.086 73.6328C327.331 72.8516 326.745 71.9271 326.328 70.8594C325.911 69.7656 325.703 68.5677 325.703 67.2656C325.703 65.599 326.003 64.1536 326.602 62.9297C327.201 61.6797 327.891 60.651 328.672 59.8438C329.453 59.0104 330.234 58.3984 331.016 58.0078C331.797 57.5911 332.383 57.3828 332.773 57.3828C333.216 57.3828 333.542 57.5 333.75 57.7344C333.984 57.9688 334.102 58.2812 334.102 58.6719C334.102 59.1146 333.958 59.4531 333.672 59.6875C333.411 59.8958 333.073 60.1042 332.656 60.3125C332.24 60.5208 331.797 60.8203 331.328 61.2109C330.859 61.5755 330.417 62.0443 330 62.6172C329.609 63.1901 329.284 63.8672 329.023 64.6484C328.763 65.4297 328.633 66.3021 328.633 67.2656C328.633 68.125 328.763 68.9323 329.023 69.6875C329.284 70.4167 329.661 71.0547 330.156 71.6016C330.651 72.1224 331.237 72.5391 331.914 72.8516C332.591 73.138 333.346 73.2812 334.18 73.2812C335.664 73.2812 336.888 72.9427 337.852 72.2656C338.841 71.5625 339.596 70.6771 340.117 69.6094C338.581 68.8021 337.318 67.6562 336.328 66.1719C335.339 64.6875 334.844 63.0208 334.844 61.1719C334.844 59.6875 335.195 58.4766 335.898 57.5391C336.628 56.6016 337.578 56.1328 338.75 56.1328C339.453 56.1328 340.117 56.3021 340.742 56.6406C341.367 56.9792 341.914 57.513 342.383 58.2422C342.878 58.9714 343.268 59.9089 343.555 61.0547C343.841 62.2005 343.984 63.5677 343.984 65.1562C343.984 65.9896 343.88 66.862 343.672 67.7734C343.828 67.7995 343.984 67.8125 344.141 67.8125C344.297 67.8125 344.466 67.8125 344.648 67.8125C345.534 67.8125 346.328 67.7083 347.031 67.5C347.734 67.2917 348.372 66.9792 348.945 66.5625C349.518 66.1458 350.026 65.612 350.469 64.9609C350.938 64.3099 351.38 63.5547 351.797 62.6953C351.875 62.5391 352.044 62.3958 352.305 62.2656C352.565 62.1094 352.826 62.0312 353.086 62.0312C353.424 62.0312 353.737 62.1745 354.023 62.4609C354.336 62.7214 354.492 63.0729 354.492 63.5156C354.492 63.724 354.44 63.9583 354.336 64.2188C354.232 64.4531 354.128 64.6745 354.023 64.8828C353.581 65.6641 353.06 66.4193 352.461 67.1484C351.888 67.8516 351.198 68.4766 350.391 69.0234C349.609 69.5443 348.724 69.9609 347.734 70.2734C346.745 70.5859 345.638 70.7292 344.414 70.7031ZM337.734 60.8594C337.734 61.3542 337.799 61.875 337.93 62.4219C338.06 62.9688 338.255 63.5156 338.516 64.0625C338.802 64.5833 339.141 65.0911 339.531 65.5859C339.948 66.0547 340.43 66.4583 340.977 66.7969C341.055 66.25 341.094 65.7161 341.094 65.1953C341.094 64.4922 341.042 63.776 340.938 63.0469C340.833 62.3177 340.677 61.6536 340.469 61.0547C340.286 60.4297 340.052 59.9349 339.766 59.5703C339.479 59.1797 339.141 58.9844 338.75 58.9844C338.594 58.9844 338.385 59.1016 338.125 59.3359C337.865 59.5703 337.734 60.0781 337.734 60.8594ZM383.828 75.5469C384.74 74.6354 385.664 73.7109 386.602 72.7734C387.539 71.8099 388.451 70.8073 389.336 69.7656C390.221 68.724 391.042 67.6432 391.797 66.5234C392.578 65.3776 393.268 64.1667 393.867 62.8906C393.997 62.6042 394.18 62.3958 394.414 62.2656C394.648 62.1094 394.909 62.0312 395.195 62.0312C395.638 62.0312 395.99 62.1875 396.25 62.5C396.536 62.8125 396.68 63.1641 396.68 63.5547C396.68 63.763 396.641 63.9583 396.562 64.1406C395.755 65.8333 394.831 67.3828 393.789 68.7891C392.747 70.1953 391.654 71.5365 390.508 72.8125C389.362 74.0625 388.203 75.2734 387.031 76.4453C385.859 77.6432 384.74 78.8411 383.672 80.0391C383.568 81.8359 383.568 83.6328 383.672 85.4297C383.776 87.2526 383.828 89.1797 383.828 91.2109C383.828 92.8776 383.776 94.5443 383.672 96.2109C383.568 97.8776 383.398 99.4661 383.164 100.977C382.93 102.513 382.604 103.945 382.188 105.273C381.797 106.602 381.289 107.747 380.664 108.711C380.039 109.701 379.31 110.469 378.477 111.016C377.643 111.589 376.667 111.875 375.547 111.875C373.698 111.875 372.279 111.237 371.289 109.961C370.299 108.685 369.805 106.901 369.805 104.609C369.805 103.359 369.935 102.018 370.195 100.586C370.482 99.1536 370.872 97.6693 371.367 96.1328C371.862 94.6224 372.448 93.0859 373.125 91.5234C373.828 89.9609 374.583 88.4375 375.391 86.9531C376.198 85.4688 377.057 84.0495 377.969 82.6953C378.88 81.3672 379.805 80.1562 380.742 79.0625C380.794 77.8125 380.846 76.5104 380.898 75.1562C380.977 73.8281 381.055 72.5911 381.133 71.4453C380.456 72.6432 379.609 73.6068 378.594 74.3359C377.604 75.0651 376.51 75.4297 375.312 75.4297C373.333 75.4297 371.784 74.7656 370.664 73.4375C369.544 72.1094 368.984 70.2865 368.984 67.9688C368.984 66.276 369.141 64.7396 369.453 63.3594C369.792 61.9531 370.143 60.7552 370.508 59.7656C370.898 58.75 371.25 57.9818 371.562 57.4609C371.875 56.9141 372.031 56.6536 372.031 56.6797C372.318 56.237 372.721 56.0156 373.242 56.0156C373.685 56.0156 374.036 56.1719 374.297 56.4844C374.583 56.7708 374.727 57.1094 374.727 57.5C374.727 57.7865 374.648 58.0469 374.492 58.2812C374.518 58.2552 374.388 58.4766 374.102 58.9453C373.841 59.388 373.542 60.0391 373.203 60.8984C372.891 61.7578 372.591 62.7865 372.305 63.9844C372.044 65.1823 371.914 66.4974 371.914 67.9297C371.914 69.362 372.174 70.4818 372.695 71.2891C373.216 72.0964 374.062 72.5 375.234 72.5C376.719 72.5 378.06 71.4062 379.258 69.2188C380.456 67.0052 381.471 63.8021 382.305 59.6094C382.357 59.2708 382.513 58.9974 382.773 58.7891C383.034 58.5547 383.346 58.4375 383.711 58.4375C384.128 58.4375 384.479 58.5807 384.766 58.8672C385.052 59.1536 385.195 59.5052 385.195 59.9219C385.195 60 385.143 60.4688 385.039 61.3281C384.935 62.1615 384.805 63.2812 384.648 64.6875C384.518 66.0938 384.375 67.7344 384.219 69.6094C384.062 71.4583 383.932 73.4375 383.828 75.5469ZM380.703 83.8281C379.531 85.5208 378.451 87.3047 377.461 89.1797C376.497 91.0547 375.664 92.9167 374.961 94.7656C374.258 96.6146 373.711 98.3854 373.32 100.078C372.93 101.771 372.734 103.281 372.734 104.609C372.734 105.964 372.956 107.018 373.398 107.773C373.841 108.555 374.544 108.945 375.508 108.945C376.367 108.945 377.122 108.516 377.773 107.656C378.451 106.823 379.01 105.625 379.453 104.062C379.922 102.5 380.273 100.599 380.508 98.3594C380.742 96.1458 380.859 93.6589 380.859 90.8984C380.859 89.7786 380.833 88.6458 380.781 87.5C380.755 86.3542 380.729 85.1302 380.703 83.8281ZM473.906 58.3984C473.88 58.5026 473.698 58.9453 473.359 59.7266C473.021 60.5078 472.448 61.4714 471.641 62.6172C470.859 63.763 469.818 65.026 468.516 66.4062C467.214 67.7865 465.573 69.1406 463.594 70.4688C461.615 71.7708 459.271 72.9688 456.562 74.0625C453.854 75.1302 450.716 75.9505 447.148 76.5234C444.753 76.9141 442.24 77.1094 439.609 77.1094C437.422 77.1094 435.221 76.9531 433.008 76.6406C430.82 76.3542 428.711 75.8854 426.68 75.2344C424.674 74.6094 422.799 73.8021 421.055 72.8125C419.31 71.8229 417.786 70.651 416.484 69.2969C415.208 67.9427 414.193 66.3932 413.438 64.6484C412.708 62.8776 412.344 60.9115 412.344 58.75C412.344 54.9219 413.398 51.6276 415.508 48.8672C417.643 46.1068 420.794 43.9583 424.961 42.4219C423.477 41.0417 422.37 39.5182 421.641 37.8516C420.911 36.1849 420.547 34.4531 420.547 32.6562C420.547 30.4167 421.055 28.3464 422.07 26.4453C423.112 24.5443 424.544 22.9036 426.367 21.5234C428.19 20.1432 430.352 19.0755 432.852 18.3203C435.378 17.5391 438.138 17.1484 441.133 17.1484C444.154 17.1484 446.784 17.4349 449.023 18.0078C451.289 18.5807 453.216 19.2969 454.805 20.1562C456.419 21.0156 457.734 21.9531 458.75 22.9688C459.792 23.9844 460.612 24.9349 461.211 25.8203C461.81 26.7057 462.227 27.4609 462.461 28.0859C462.695 28.6849 462.826 29.0234 462.852 29.1016C462.878 29.2057 462.891 29.349 462.891 29.5312C462.891 29.8958 462.747 30.2344 462.461 30.5469C462.201 30.8333 461.849 30.9766 461.406 30.9766C461.094 30.9766 460.807 30.8854 460.547 30.7031C460.312 30.4948 460.143 30.2214 460.039 29.8828C460.039 29.8307 459.935 29.5573 459.727 29.0625C459.518 28.5417 459.154 27.9167 458.633 27.1875C458.112 26.4583 457.396 25.6901 456.484 24.8828C455.599 24.0495 454.453 23.2812 453.047 22.5781C451.641 21.849 449.961 21.25 448.008 20.7812C446.055 20.3125 443.763 20.0781 441.133 20.0781C438.112 20.0781 435.482 20.4557 433.242 21.2109C431.029 21.9661 429.193 22.9557 427.734 24.1797C426.302 25.3776 425.234 26.7188 424.531 28.2031C423.828 29.6875 423.477 31.1458 423.477 32.5781C423.477 34.2708 423.893 35.8854 424.727 37.4219C425.56 38.9583 426.758 40.2734 428.32 41.3672C429.727 41.0026 431.107 40.7161 432.461 40.5078C433.815 40.2995 435.091 40.1432 436.289 40.0391C437.487 39.9089 438.568 39.8307 439.531 39.8047C440.521 39.7526 441.328 39.7266 441.953 39.7266C443.099 39.7266 444.154 39.8177 445.117 40C446.081 40.1562 446.901 40.4036 447.578 40.7422C448.281 41.0547 448.828 41.4714 449.219 41.9922C449.609 42.487 449.805 43.0599 449.805 43.7109C449.805 44.362 449.609 44.9479 449.219 45.4688C448.828 45.9896 448.281 46.4323 447.578 46.7969C446.901 47.1615 446.081 47.4479 445.117 47.6562C444.154 47.8385 443.099 47.9297 441.953 47.9297C440.703 47.9297 439.44 47.8516 438.164 47.6953C436.888 47.5391 435.638 47.3177 434.414 47.0312C433.216 46.7448 432.057 46.3932 430.938 45.9766C429.818 45.5339 428.802 45.0391 427.891 44.4922C423.75 45.7422 420.612 47.5521 418.477 49.9219C416.341 52.2656 415.273 55.1693 415.273 58.6328C415.273 60.5078 415.599 62.2005 416.25 63.7109C416.927 65.1953 417.852 66.5104 419.023 67.6562C420.195 68.8021 421.562 69.7917 423.125 70.625C424.714 71.4323 426.406 72.0964 428.203 72.6172C430 73.138 431.875 73.5286 433.828 73.7891C435.781 74.0234 437.721 74.1406 439.648 74.1406C440.898 74.1406 442.109 74.1016 443.281 74.0234C444.453 73.9193 445.586 73.776 446.68 73.5938C449.961 73.0729 452.839 72.3177 455.312 71.3281C457.812 70.3125 459.961 69.2188 461.758 68.0469C463.581 66.849 465.091 65.638 466.289 64.4141C467.487 63.1641 468.438 62.0312 469.141 61.0156C469.87 59.974 470.378 59.1276 470.664 58.4766C470.977 57.8255 471.133 57.487 471.133 57.4609C471.237 57.1484 471.406 56.9141 471.641 56.7578C471.901 56.5755 472.188 56.4844 472.5 56.4844C472.917 56.4844 473.268 56.6276 473.555 56.9141C473.841 57.2005 473.984 57.5391 473.984 57.9297C473.984 58.0339 473.958 58.1901 473.906 58.3984ZM446.836 43.75C446.836 43.5417 446.667 43.3594 446.328 43.2031C445.99 43.0469 445.547 42.9297 445 42.8516C444.479 42.7474 443.88 42.6823 443.203 42.6562C442.526 42.6042 441.836 42.5781 441.133 42.5781C439.596 42.5781 438.138 42.6302 436.758 42.7344C435.378 42.8125 433.802 43.0208 432.031 43.3594C433.385 43.8542 434.935 44.2578 436.68 44.5703C438.451 44.8568 440.234 45 442.031 45C443.672 45 444.883 44.8698 445.664 44.6094C446.445 44.349 446.836 44.0625 446.836 43.75ZM493.633 62.6953C493.242 64.5182 492.682 66.224 491.953 67.8125C491.224 69.375 490.443 70.7422 489.609 71.9141C488.802 73.0859 487.982 74.0104 487.148 74.6875C486.315 75.3646 485.599 75.7292 485 75.7812C484.323 75.7812 483.568 75.4427 482.734 74.7656C481.927 74.0885 481.146 73.151 480.391 71.9531C479.661 70.7292 479.049 69.2839 478.555 67.6172C478.06 65.9505 477.812 64.1406 477.812 62.1875C477.812 60.4688 477.956 59.1667 478.242 58.2812C478.555 57.3958 478.75 56.888 478.828 56.7578C478.958 56.5234 479.128 56.3411 479.336 56.2109C479.57 56.0807 479.831 56.0156 480.117 56.0156C480.56 56.0156 480.911 56.1719 481.172 56.4844C481.432 56.7708 481.562 57.0964 481.562 57.4609C481.562 57.7214 481.51 57.9427 481.406 58.125C481.38 58.1771 481.263 58.5286 481.055 59.1797C480.846 59.8307 480.742 60.8073 480.742 62.1094C480.742 63.6458 480.898 65.0651 481.211 66.3672C481.523 67.6693 481.901 68.7891 482.344 69.7266C482.786 70.6641 483.242 71.4062 483.711 71.9531C484.206 72.474 484.609 72.7344 484.922 72.7344C485.13 72.7344 485.43 72.5391 485.82 72.1484C486.237 71.7578 486.667 71.224 487.109 70.5469C487.578 69.8698 488.047 69.0625 488.516 68.125C489.01 67.1875 489.453 66.1719 489.844 65.0781C490.26 63.9583 490.586 62.7865 490.82 61.5625C491.081 60.3125 491.211 59.0495 491.211 57.7734C491.211 57.513 491.198 57.2656 491.172 57.0312C491.172 56.7708 491.172 56.5104 491.172 56.25C491.172 55.8073 491.302 55.4427 491.562 55.1562C491.849 54.8438 492.214 54.6875 492.656 54.6875C492.995 54.6875 493.294 54.7917 493.555 55C493.841 55.2083 494.023 55.4948 494.102 55.8594C494.102 55.8333 494.154 56.0417 494.258 56.4844C494.362 56.9271 494.531 57.5 494.766 58.2031C495.026 58.8802 495.339 59.6224 495.703 60.4297C496.094 61.237 496.549 61.9922 497.07 62.6953C497.617 63.3724 498.242 63.9453 498.945 64.4141C499.648 64.8828 500.456 65.1172 501.367 65.1172C501.862 65.1172 502.292 65.013 502.656 64.8047C503.021 64.5964 503.32 64.362 503.555 64.1016C503.789 63.8411 503.958 63.5938 504.062 63.3594C504.193 63.125 504.258 62.9948 504.258 62.9688C504.362 62.6823 504.531 62.4609 504.766 62.3047C505.026 62.1224 505.312 62.0312 505.625 62.0312C506.042 62.0312 506.393 62.1875 506.68 62.5C506.966 62.7865 507.109 63.125 507.109 63.5156C507.109 63.6979 507.07 63.8802 506.992 64.0625C506.836 64.4271 506.602 64.8438 506.289 65.3125C506.003 65.7812 505.625 66.224 505.156 66.6406C504.688 67.0573 504.128 67.4089 503.477 67.6953C502.852 67.9557 502.148 68.0859 501.367 68.0859C500.456 68.0859 499.609 67.9297 498.828 67.6172C498.047 67.2786 497.331 66.862 496.68 66.3672C496.055 65.8464 495.482 65.2734 494.961 64.6484C494.44 63.9974 493.997 63.3464 493.633 62.6953ZM534.492 64.1016C534.388 64.3099 534.167 64.7526 533.828 65.4297C533.516 66.0807 533.099 66.8359 532.578 67.6953C532.083 68.5547 531.497 69.4531 530.82 70.3906C530.143 71.3281 529.388 72.1875 528.555 72.9688C527.721 73.75 526.823 74.401 525.859 74.9219C524.896 75.4167 523.88 75.6641 522.812 75.6641C521.302 75.6641 520.026 75.1823 518.984 74.2188C517.969 73.2552 517.227 72.0443 516.758 70.5859C515.872 72.0703 514.818 73.2552 513.594 74.1406C512.37 75 511.146 75.4297 509.922 75.4297C508.958 75.4297 508.086 75.2604 507.305 74.9219C506.523 74.5573 505.859 74.0625 505.312 73.4375C504.766 72.7865 504.336 72.0312 504.023 71.1719C503.737 70.3125 503.594 69.375 503.594 68.3594C503.594 66.3281 503.932 64.5443 504.609 63.0078C505.312 61.4453 506.198 60.1432 507.266 59.1016C508.333 58.0599 509.505 57.2786 510.781 56.7578C512.083 56.237 513.333 55.9766 514.531 55.9766C515.339 55.9766 516.081 56.0938 516.758 56.3281C517.435 56.5365 518.008 56.7708 518.477 57.0312C518.971 57.2917 519.349 57.5391 519.609 57.7734C519.87 57.9818 520.013 58.099 520.039 58.125C520.326 58.4635 520.469 58.8151 520.469 59.1797C520.469 59.5703 520.326 59.9219 520.039 60.2344C519.753 60.5208 519.414 60.6641 519.023 60.6641C518.607 60.6641 518.255 60.5208 517.969 60.2344C517.917 60.1823 517.799 60.0911 517.617 59.9609C517.435 59.8047 517.188 59.6484 516.875 59.4922C516.562 59.3359 516.185 59.2057 515.742 59.1016C515.326 58.9714 514.844 58.9062 514.297 58.9062C513.49 58.9062 512.63 59.0885 511.719 59.4531C510.807 59.8177 509.974 60.3906 509.219 61.1719C508.464 61.9271 507.826 62.8906 507.305 64.0625C506.81 65.2083 506.562 66.5755 506.562 68.1641C506.562 68.6589 506.615 69.1667 506.719 69.6875C506.823 70.1823 507.005 70.638 507.266 71.0547C507.526 71.4714 507.878 71.8099 508.32 72.0703C508.763 72.3307 509.31 72.4609 509.961 72.4609C510.43 72.4609 510.964 72.3047 511.562 71.9922C512.188 71.6797 512.773 71.1979 513.32 70.5469C513.893 69.8958 514.401 69.0755 514.844 68.0859C515.312 67.0964 515.638 65.9245 515.82 64.5703C515.872 64.2057 516.042 63.9062 516.328 63.6719C516.615 63.4115 516.953 63.2812 517.344 63.2812C517.708 63.2812 518.021 63.4245 518.281 63.7109C518.568 63.9974 518.724 64.3229 518.75 64.6875C518.776 65.1823 518.828 65.8854 518.906 66.7969C518.984 67.6823 519.154 68.5677 519.414 69.4531C519.701 70.3385 520.117 71.1068 520.664 71.7578C521.211 72.4089 521.966 72.7344 522.93 72.7344C523.555 72.7344 524.167 72.5651 524.766 72.2266C525.391 71.888 525.99 71.4453 526.562 70.8984C527.161 70.3255 527.721 69.6875 528.242 68.9844C528.789 68.2552 529.284 67.526 529.727 66.7969C530.169 66.0677 530.56 65.3646 530.898 64.6875C531.237 64.0104 531.523 63.4245 531.758 62.9297C531.888 62.6432 532.07 62.4219 532.305 62.2656C532.565 62.1094 532.839 62.0312 533.125 62.0312C533.568 62.0312 533.919 62.2005 534.18 62.5391C534.466 62.8516 534.609 63.1901 534.609 63.5547C534.609 63.737 534.57 63.9193 534.492 64.1016Z" fill="white"/>
<path d="M243.117 219.086C243.117 220.102 242.941 221.02 242.59 221.84C242.238 222.647 241.757 223.37 241.145 224.008C240.533 224.633 239.823 225.173 239.016 225.629C238.208 226.085 237.342 226.456 236.418 226.742C235.507 227.042 234.569 227.263 233.605 227.406C232.642 227.549 231.704 227.621 230.793 227.621C230.077 227.621 229.289 227.582 228.43 227.504C227.583 227.439 226.73 227.302 225.871 227.094C225.012 226.898 224.178 226.618 223.371 226.254C222.564 225.902 221.848 225.44 221.223 224.867C220.611 224.281 220.116 223.572 219.738 222.738C219.361 221.905 219.172 220.922 219.172 219.789C219.172 219.034 219.296 218.331 219.543 217.68C219.803 217.016 220.155 216.404 220.598 215.844C221.053 215.284 221.587 214.763 222.199 214.281C222.824 213.799 223.488 213.35 224.191 212.934C224.908 212.517 225.656 212.126 226.438 211.762C227.232 211.397 228.026 211.046 228.82 210.707C227.974 210.421 227.147 210.076 226.34 209.672C225.546 209.255 224.829 208.76 224.191 208.188C223.566 207.602 223.059 206.931 222.668 206.176C222.29 205.421 222.102 204.542 222.102 203.539C222.102 202.576 222.342 201.69 222.824 200.883C223.306 200.062 223.99 199.359 224.875 198.773C225.773 198.188 226.854 197.732 228.117 197.406C229.38 197.081 230.786 196.918 232.336 196.918C233.326 196.918 234.217 197.016 235.012 197.211C235.806 197.393 236.503 197.647 237.102 197.973C237.714 198.298 238.234 198.676 238.664 199.105C239.094 199.522 239.445 199.965 239.719 200.434C239.992 200.902 240.188 201.378 240.305 201.859C240.435 202.328 240.5 202.777 240.5 203.207C240.5 204.027 240.344 204.776 240.031 205.453C239.732 206.13 239.283 206.762 238.684 207.348C238.085 207.921 237.336 208.467 236.438 208.988C235.539 209.496 234.497 209.991 233.312 210.473C239.849 212.178 243.117 215.049 243.117 219.086ZM239.035 203.188C239.035 202.38 238.827 201.677 238.41 201.078C238.007 200.466 237.479 199.965 236.828 199.574C236.19 199.171 235.474 198.871 234.68 198.676C233.885 198.48 233.104 198.383 232.336 198.383C231.021 198.383 229.823 198.513 228.742 198.773C227.674 199.021 226.757 199.372 225.988 199.828C225.22 200.284 224.621 200.831 224.191 201.469C223.775 202.094 223.566 202.784 223.566 203.539C223.566 204.464 223.788 205.264 224.23 205.941C224.686 206.618 225.266 207.204 225.969 207.699C226.685 208.194 227.479 208.617 228.352 208.969C229.237 209.307 230.103 209.6 230.949 209.848C231.405 209.678 231.919 209.49 232.492 209.281C233.078 209.06 233.671 208.812 234.27 208.539C234.868 208.266 235.454 207.953 236.027 207.602C236.6 207.25 237.108 206.859 237.551 206.43C237.993 205.987 238.352 205.499 238.625 204.965C238.898 204.431 239.035 203.839 239.035 203.188ZM230.891 226.176C231.633 226.176 232.408 226.124 233.215 226.02C234.035 225.928 234.842 225.772 235.637 225.551C236.444 225.329 237.206 225.036 237.922 224.672C238.651 224.307 239.289 223.865 239.836 223.344C240.396 222.823 240.839 222.217 241.164 221.527C241.49 220.824 241.652 220.023 241.652 219.125C241.652 218.266 241.477 217.504 241.125 216.84C240.786 216.163 240.331 215.57 239.758 215.062C239.198 214.555 238.547 214.112 237.805 213.734C237.076 213.357 236.314 213.025 235.52 212.738C234.738 212.452 233.957 212.204 233.176 211.996C232.395 211.775 231.678 211.573 231.027 211.391C230.22 211.716 229.4 212.055 228.566 212.406C227.746 212.758 226.952 213.129 226.184 213.52C225.415 213.91 224.693 214.333 224.016 214.789C223.339 215.232 222.746 215.714 222.238 216.234C221.743 216.755 221.353 217.315 221.066 217.914C220.78 218.513 220.637 219.158 220.637 219.848C220.637 220.889 220.884 221.807 221.379 222.602C221.874 223.383 222.57 224.04 223.469 224.574C224.367 225.095 225.441 225.492 226.691 225.766C227.954 226.039 229.354 226.176 230.891 226.176ZM261.398 220.316C262.036 223.324 262.961 224.828 264.172 224.828C264.641 224.828 265.09 224.659 265.52 224.32C265.949 223.969 266.346 223.546 266.711 223.051C267.089 222.543 267.421 222.009 267.707 221.449C267.993 220.889 268.228 220.401 268.41 219.984C268.54 219.672 268.768 219.516 269.094 219.516C269.302 219.516 269.478 219.594 269.621 219.75C269.764 219.906 269.836 220.076 269.836 220.258C269.836 220.362 269.816 220.453 269.777 220.531C269.686 220.753 269.549 221.052 269.367 221.43C269.198 221.794 268.983 222.191 268.723 222.621C268.475 223.038 268.195 223.467 267.883 223.91C267.57 224.353 267.225 224.75 266.848 225.102C266.47 225.453 266.066 225.746 265.637 225.98C265.22 226.202 264.777 226.312 264.309 226.312C263.436 226.312 262.688 226.013 262.062 225.414C261.438 224.802 260.897 223.799 260.441 222.406C259.816 223.734 259.185 224.698 258.547 225.297C257.909 225.896 257.219 226.195 256.477 226.195C256.086 226.195 255.708 226.13 255.344 226C254.979 225.883 254.66 225.681 254.387 225.395C254.113 225.108 253.892 224.743 253.723 224.301C253.553 223.845 253.469 223.292 253.469 222.641C253.469 221.742 253.625 220.915 253.938 220.16C254.25 219.405 254.654 218.76 255.148 218.227C255.643 217.68 256.19 217.257 256.789 216.957C257.401 216.658 258.007 216.508 258.605 216.508C258.801 216.508 258.97 216.579 259.113 216.723C259.257 216.853 259.328 217.022 259.328 217.23C259.328 217.413 259.27 217.576 259.152 217.719C259.035 217.862 258.879 217.947 258.684 217.973C258.293 218.025 257.876 218.148 257.434 218.344C256.991 218.539 256.581 218.826 256.203 219.203C255.839 219.568 255.533 220.036 255.285 220.609C255.051 221.182 254.934 221.866 254.934 222.66C254.934 223.311 255.064 223.819 255.324 224.184C255.598 224.548 255.988 224.73 256.496 224.73C256.704 224.73 256.926 224.678 257.16 224.574C257.395 224.457 257.642 224.236 257.902 223.91C258.176 223.585 258.469 223.122 258.781 222.523C259.107 221.924 259.465 221.137 259.855 220.16C259.634 219.014 259.432 217.693 259.25 216.195C259.068 214.698 258.977 213.025 258.977 211.176C258.977 210.368 259.003 209.529 259.055 208.656C259.107 207.771 259.191 206.911 259.309 206.078C259.426 205.232 259.582 204.431 259.777 203.676C259.973 202.921 260.207 202.257 260.48 201.684C260.767 201.111 261.099 200.661 261.477 200.336C261.854 199.997 262.284 199.828 262.766 199.828C263.195 199.828 263.56 199.945 263.859 200.18C264.159 200.414 264.4 200.74 264.582 201.156C264.777 201.573 264.921 202.074 265.012 202.66C265.103 203.246 265.148 203.891 265.148 204.594C265.148 206.104 265.018 207.615 264.758 209.125C264.497 210.635 264.172 212.081 263.781 213.461C263.404 214.841 263 216.117 262.57 217.289C262.141 218.461 261.75 219.47 261.398 220.316ZM263.684 204.574C263.684 204.249 263.671 203.897 263.645 203.52C263.632 203.142 263.586 202.79 263.508 202.465C263.443 202.126 263.352 201.846 263.234 201.625C263.117 201.404 262.961 201.293 262.766 201.293C262.44 201.293 262.134 201.579 261.848 202.152C261.574 202.725 261.333 203.48 261.125 204.418C260.917 205.342 260.747 206.397 260.617 207.582C260.5 208.754 260.441 209.939 260.441 211.137C260.441 212.283 260.487 213.428 260.578 214.574C260.669 215.72 260.773 216.742 260.891 217.641C261.268 216.638 261.626 215.609 261.965 214.555C262.303 213.487 262.596 212.4 262.844 211.293C263.104 210.186 263.306 209.073 263.449 207.953C263.605 206.82 263.684 205.694 263.684 204.574ZM270.773 223.852C271.047 224.229 271.398 224.535 271.828 224.77C272.258 224.991 272.785 225.102 273.41 225.102C274.048 225.102 274.628 224.952 275.148 224.652C275.669 224.34 276.145 223.936 276.574 223.441C277.004 222.947 277.388 222.393 277.727 221.781C278.065 221.169 278.371 220.557 278.645 219.945C278.71 219.802 278.801 219.698 278.918 219.633C279.035 219.555 279.165 219.516 279.309 219.516C279.53 219.516 279.706 219.594 279.836 219.75C279.979 219.906 280.051 220.076 280.051 220.258C280.051 220.323 280.044 220.382 280.031 220.434C280.018 220.473 279.999 220.518 279.973 220.57C279.074 222.549 278.091 224.04 277.023 225.043C275.969 226.046 274.771 226.56 273.43 226.586C272.57 226.586 271.828 226.417 271.203 226.078C270.578 225.753 270.064 225.329 269.66 224.809C269.257 224.275 268.957 223.676 268.762 223.012C268.566 222.348 268.469 221.684 268.469 221.02C268.469 220.355 268.547 219.743 268.703 219.184C268.872 218.624 269.107 218.135 269.406 217.719C269.719 217.302 270.083 216.977 270.5 216.742C270.93 216.508 271.398 216.391 271.906 216.391C272.206 216.391 272.499 216.456 272.785 216.586C273.085 216.703 273.352 216.879 273.586 217.113C273.82 217.335 274.009 217.608 274.152 217.934C274.296 218.259 274.367 218.63 274.367 219.047C274.367 219.581 274.276 220.082 274.094 220.551C273.911 221.02 273.658 221.456 273.332 221.859C273.02 222.263 272.642 222.634 272.199 222.973C271.757 223.311 271.281 223.604 270.773 223.852ZM270.188 222.582C270.591 222.413 270.956 222.198 271.281 221.938C271.62 221.677 271.906 221.391 272.141 221.078C272.375 220.766 272.557 220.44 272.688 220.102C272.818 219.75 272.883 219.398 272.883 219.047C272.883 218.656 272.785 218.363 272.59 218.168C272.395 217.96 272.167 217.855 271.906 217.855C271.555 217.855 271.255 217.953 271.008 218.148C270.76 218.344 270.559 218.598 270.402 218.91C270.246 219.223 270.129 219.574 270.051 219.965C269.986 220.342 269.953 220.72 269.953 221.098C269.953 221.332 269.973 221.579 270.012 221.84C270.064 222.1 270.122 222.348 270.188 222.582ZM302.551 220.551C302.499 220.655 302.388 220.876 302.219 221.215C302.062 221.54 301.854 221.918 301.594 222.348C301.346 222.777 301.053 223.227 300.715 223.695C300.376 224.164 299.999 224.594 299.582 224.984C299.165 225.375 298.716 225.701 298.234 225.961C297.753 226.208 297.245 226.332 296.711 226.332C295.956 226.332 295.318 226.091 294.797 225.609C294.289 225.128 293.918 224.522 293.684 223.793C293.241 224.535 292.714 225.128 292.102 225.57C291.49 226 290.878 226.215 290.266 226.215C289.784 226.215 289.348 226.13 288.957 225.961C288.566 225.779 288.234 225.531 287.961 225.219C287.688 224.893 287.473 224.516 287.316 224.086C287.173 223.656 287.102 223.188 287.102 222.68C287.102 221.664 287.271 220.772 287.609 220.004C287.961 219.223 288.404 218.572 288.938 218.051C289.471 217.53 290.057 217.139 290.695 216.879C291.346 216.618 291.971 216.488 292.57 216.488C292.974 216.488 293.345 216.547 293.684 216.664C294.022 216.768 294.309 216.885 294.543 217.016C294.79 217.146 294.979 217.27 295.109 217.387C295.24 217.491 295.311 217.549 295.324 217.562C295.467 217.732 295.539 217.908 295.539 218.09C295.539 218.285 295.467 218.461 295.324 218.617C295.181 218.76 295.012 218.832 294.816 218.832C294.608 218.832 294.432 218.76 294.289 218.617C294.263 218.591 294.204 218.546 294.113 218.48C294.022 218.402 293.898 218.324 293.742 218.246C293.586 218.168 293.397 218.103 293.176 218.051C292.967 217.986 292.727 217.953 292.453 217.953C292.049 217.953 291.62 218.044 291.164 218.227C290.708 218.409 290.292 218.695 289.914 219.086C289.536 219.464 289.217 219.945 288.957 220.531C288.71 221.104 288.586 221.788 288.586 222.582C288.586 222.829 288.612 223.083 288.664 223.344C288.716 223.591 288.807 223.819 288.938 224.027C289.068 224.236 289.243 224.405 289.465 224.535C289.686 224.665 289.96 224.73 290.285 224.73C290.52 224.73 290.786 224.652 291.086 224.496C291.398 224.34 291.691 224.099 291.965 223.773C292.251 223.448 292.505 223.038 292.727 222.543C292.961 222.048 293.124 221.462 293.215 220.785C293.241 220.603 293.326 220.453 293.469 220.336C293.612 220.206 293.781 220.141 293.977 220.141C294.159 220.141 294.315 220.212 294.445 220.355C294.589 220.499 294.667 220.661 294.68 220.844C294.693 221.091 294.719 221.443 294.758 221.898C294.797 222.341 294.882 222.784 295.012 223.227C295.155 223.669 295.363 224.053 295.637 224.379C295.91 224.704 296.288 224.867 296.77 224.867C297.082 224.867 297.388 224.783 297.688 224.613C298 224.444 298.299 224.223 298.586 223.949C298.885 223.663 299.165 223.344 299.426 222.992C299.699 222.628 299.947 222.263 300.168 221.898C300.389 221.534 300.585 221.182 300.754 220.844C300.923 220.505 301.066 220.212 301.184 219.965C301.249 219.822 301.34 219.711 301.457 219.633C301.587 219.555 301.724 219.516 301.867 219.516C302.089 219.516 302.264 219.6 302.395 219.77C302.538 219.926 302.609 220.095 302.609 220.277C302.609 220.368 302.59 220.46 302.551 220.551ZM317.668 220.59C317.629 220.668 317.544 220.831 317.414 221.078C317.284 221.312 317.115 221.592 316.906 221.918C316.698 222.23 316.451 222.569 316.164 222.934C315.878 223.285 315.565 223.611 315.227 223.91C314.888 224.21 314.523 224.457 314.133 224.652C313.742 224.848 313.339 224.945 312.922 224.945C312.245 224.945 311.672 224.828 311.203 224.594C310.734 224.346 310.35 224.073 310.051 223.773C309.842 224.229 309.589 224.646 309.289 225.023C308.99 225.401 308.658 225.727 308.293 226C307.928 226.286 307.538 226.508 307.121 226.664C306.717 226.82 306.301 226.898 305.871 226.898C305.077 226.898 304.4 226.664 303.84 226.195C303.28 225.727 302.811 225.102 302.434 224.32C302.069 223.526 301.783 222.608 301.574 221.566C301.366 220.525 301.203 219.431 301.086 218.285C300.982 217.139 300.917 215.98 300.891 214.809C300.865 213.637 300.852 212.523 300.852 211.469C300.852 209.451 300.91 207.706 301.027 206.234C301.145 204.75 301.301 203.493 301.496 202.465C301.704 201.423 301.939 200.583 302.199 199.945C302.473 199.294 302.759 198.793 303.059 198.441C303.358 198.077 303.664 197.829 303.977 197.699C304.289 197.569 304.595 197.504 304.895 197.504C305.376 197.504 305.799 197.647 306.164 197.934C306.542 198.22 306.854 198.624 307.102 199.145C307.362 199.652 307.557 200.271 307.688 201C307.818 201.729 307.883 202.53 307.883 203.402C307.883 204.796 307.733 206.234 307.434 207.719C307.134 209.203 306.743 210.688 306.262 212.172C305.793 213.643 305.266 215.095 304.68 216.527C304.094 217.947 303.514 219.294 302.941 220.57C303.02 221.208 303.137 221.82 303.293 222.406C303.449 222.979 303.651 223.493 303.898 223.949C304.146 224.392 304.439 224.75 304.777 225.023C305.116 225.284 305.507 225.414 305.949 225.414C306.392 225.414 306.809 225.29 307.199 225.043C307.59 224.783 307.928 224.451 308.215 224.047C308.501 223.63 308.723 223.161 308.879 222.641C309.048 222.12 309.133 221.586 309.133 221.039C309.133 220.674 309.094 220.31 309.016 219.945C308.951 219.568 308.84 219.236 308.684 218.949C308.54 218.65 308.358 218.409 308.137 218.227C307.915 218.044 307.648 217.953 307.336 217.953C307.102 217.953 306.919 218.005 306.789 218.109C306.659 218.201 306.561 218.311 306.496 218.441C306.431 218.559 306.392 218.676 306.379 218.793C306.366 218.91 306.359 218.988 306.359 219.027C306.359 219.21 306.398 219.392 306.477 219.574C306.555 219.757 306.704 219.919 306.926 220.062C307.147 220.219 307.258 220.434 307.258 220.707C307.258 220.928 307.18 221.104 307.023 221.234C306.88 221.365 306.717 221.43 306.535 221.43C306.275 221.43 306.04 221.352 305.832 221.195C305.637 221.039 305.467 220.844 305.324 220.609C305.181 220.362 305.07 220.102 304.992 219.828C304.914 219.555 304.875 219.301 304.875 219.066C304.875 218.689 304.94 218.344 305.07 218.031C305.201 217.706 305.376 217.432 305.598 217.211C305.832 216.977 306.092 216.801 306.379 216.684C306.678 216.553 306.991 216.488 307.316 216.488C307.876 216.488 308.358 216.618 308.762 216.879C309.178 217.139 309.523 217.484 309.797 217.914C310.07 218.344 310.272 218.832 310.402 219.379C310.533 219.926 310.598 220.479 310.598 221.039C310.598 221.365 310.578 221.684 310.539 221.996C310.591 222.1 310.676 222.237 310.793 222.406C310.91 222.576 311.066 222.738 311.262 222.895C311.457 223.051 311.691 223.188 311.965 223.305C312.238 223.422 312.557 223.48 312.922 223.48C313.234 223.48 313.553 223.363 313.879 223.129C314.217 222.882 314.536 222.582 314.836 222.23C315.148 221.866 315.435 221.482 315.695 221.078C315.956 220.661 316.171 220.277 316.34 219.926C316.405 219.796 316.496 219.698 316.613 219.633C316.73 219.555 316.861 219.516 317.004 219.516C317.225 219.516 317.401 219.594 317.531 219.75C317.674 219.906 317.746 220.082 317.746 220.277C317.746 220.355 317.72 220.46 317.668 220.59ZM302.57 218.07C303.013 216.977 303.462 215.831 303.918 214.633C304.374 213.422 304.784 212.191 305.148 210.941C305.513 209.691 305.812 208.428 306.047 207.152C306.281 205.876 306.398 204.62 306.398 203.383C306.398 202.914 306.372 202.426 306.32 201.918C306.281 201.397 306.203 200.922 306.086 200.492C305.969 200.062 305.806 199.704 305.598 199.418C305.402 199.132 305.148 198.988 304.836 198.988C304.732 198.988 304.595 199.06 304.426 199.203C304.27 199.333 304.1 199.574 303.918 199.926C303.736 200.264 303.553 200.74 303.371 201.352C303.189 201.964 303.02 202.745 302.863 203.695C302.72 204.633 302.596 205.766 302.492 207.094C302.401 208.422 302.355 209.984 302.355 211.781C302.355 212.38 302.362 212.992 302.375 213.617C302.388 214.229 302.401 214.815 302.414 215.375C302.44 215.935 302.466 216.449 302.492 216.918C302.518 217.387 302.544 217.771 302.57 218.07ZM318.41 217.973C318.358 218.324 318.293 218.656 318.215 218.969C318.137 219.268 318.059 219.535 317.98 219.77C317.915 219.991 317.857 220.173 317.805 220.316C317.753 220.46 317.72 220.538 317.707 220.551C317.577 220.85 317.349 221 317.023 221C316.841 221 316.672 220.935 316.516 220.805C316.359 220.661 316.281 220.486 316.281 220.277C316.281 220.199 316.294 220.141 316.32 220.102C316.346 220.062 316.385 219.984 316.438 219.867C316.49 219.75 316.555 219.555 316.633 219.281C316.711 219.008 316.809 218.585 316.926 218.012C316.704 218.012 316.477 218.005 316.242 217.992C316.008 217.979 315.793 217.934 315.598 217.855C315.389 217.777 315.22 217.654 315.09 217.484C314.96 217.315 314.895 217.081 314.895 216.781C314.895 216.56 314.96 216.26 315.09 215.883C315.207 215.505 315.37 215.134 315.578 214.77C315.786 214.405 316.021 214.092 316.281 213.832C316.542 213.559 316.802 213.422 317.062 213.422C317.362 213.422 317.603 213.533 317.785 213.754C317.98 213.975 318.13 214.249 318.234 214.574C318.339 214.887 318.41 215.219 318.449 215.57C318.501 215.922 318.527 216.228 318.527 216.488C318.749 216.488 318.964 216.488 319.172 216.488C319.393 216.475 319.602 216.469 319.797 216.469C320.539 216.469 321.105 216.632 321.496 216.957C321.887 217.283 322.082 217.816 322.082 218.559C322.082 218.858 322.062 219.171 322.023 219.496C321.984 219.822 321.939 220.16 321.887 220.512C321.835 220.85 321.789 221.189 321.75 221.527C321.711 221.866 321.691 222.198 321.691 222.523C321.691 222.992 321.757 223.383 321.887 223.695C322.017 223.995 322.18 224.236 322.375 224.418C322.57 224.6 322.779 224.73 323 224.809C323.221 224.874 323.423 224.906 323.605 224.906C324.165 224.906 324.693 224.724 325.188 224.359C325.682 223.995 326.138 223.559 326.555 223.051C326.971 222.53 327.342 221.983 327.668 221.41C328.007 220.837 328.286 220.336 328.508 219.906C328.573 219.789 328.664 219.698 328.781 219.633C328.898 219.568 329.022 219.535 329.152 219.535C329.387 219.535 329.569 219.613 329.699 219.77C329.829 219.913 329.895 220.076 329.895 220.258C329.895 220.388 329.868 220.505 329.816 220.609C329.517 221.143 329.165 221.749 328.762 222.426C328.371 223.09 327.922 223.715 327.414 224.301C326.906 224.887 326.333 225.382 325.695 225.785C325.07 226.189 324.38 226.391 323.625 226.391C323.156 226.391 322.714 226.299 322.297 226.117C321.88 225.948 321.516 225.701 321.203 225.375C320.904 225.036 320.663 224.626 320.48 224.145C320.298 223.65 320.207 223.096 320.207 222.484C320.207 221.833 320.272 221.189 320.402 220.551C320.533 219.9 320.598 219.281 320.598 218.695C320.598 218.448 320.539 218.266 320.422 218.148C320.318 218.018 320.077 217.953 319.699 217.953C319.517 217.953 319.315 217.953 319.094 217.953C318.885 217.953 318.658 217.96 318.41 217.973ZM317.102 216.527C317.102 216.436 317.095 216.319 317.082 216.176C317.082 216.02 317.069 215.87 317.043 215.727C317.03 215.583 317.004 215.46 316.965 215.355C316.939 215.251 316.906 215.199 316.867 215.199C316.828 215.199 316.776 215.251 316.711 215.355C316.659 215.447 316.6 215.564 316.535 215.707C316.47 215.837 316.411 215.98 316.359 216.137C316.307 216.293 316.268 216.423 316.242 216.527H317.102ZM331.691 210.668C331.691 211.163 331.516 211.586 331.164 211.938C330.826 212.276 330.409 212.445 329.914 212.445C329.419 212.445 328.996 212.276 328.645 211.938C328.306 211.586 328.137 211.163 328.137 210.668C328.137 210.421 328.182 210.193 328.273 209.984C328.365 209.763 328.488 209.574 328.645 209.418C328.814 209.249 329.003 209.118 329.211 209.027C329.432 208.936 329.667 208.891 329.914 208.891C330.161 208.891 330.389 208.936 330.598 209.027C330.819 209.118 331.008 209.249 331.164 209.418C331.333 209.574 331.464 209.763 331.555 209.984C331.646 210.193 331.691 210.421 331.691 210.668ZM328.527 222.113C328.527 220.238 328.645 218.37 328.879 216.508C328.905 216.326 328.983 216.169 329.113 216.039C329.257 215.896 329.439 215.824 329.66 215.824C329.855 215.824 330.018 215.902 330.148 216.059C330.279 216.202 330.344 216.371 330.344 216.566C330.344 216.645 330.324 216.879 330.285 217.27C330.259 217.66 330.22 218.129 330.168 218.676C330.129 219.21 330.09 219.783 330.051 220.395C330.025 220.993 330.012 221.547 330.012 222.055C330.012 222.745 330.077 223.305 330.207 223.734C330.35 224.151 330.526 224.477 330.734 224.711C330.956 224.945 331.184 225.102 331.418 225.18C331.665 225.258 331.9 225.297 332.121 225.297C332.486 225.297 332.863 225.167 333.254 224.906C333.645 224.646 334.042 224.281 334.445 223.812C334.862 223.344 335.279 222.784 335.695 222.133C336.112 221.469 336.522 220.733 336.926 219.926C336.991 219.796 337.082 219.698 337.199 219.633C337.316 219.555 337.447 219.516 337.59 219.516C337.798 219.516 337.967 219.594 338.098 219.75C338.241 219.906 338.312 220.076 338.312 220.258C338.312 220.388 338.286 220.499 338.234 220.59C338.078 220.889 337.883 221.254 337.648 221.684C337.414 222.113 337.147 222.556 336.848 223.012C336.548 223.467 336.216 223.923 335.852 224.379C335.5 224.822 335.122 225.225 334.719 225.59C334.315 225.941 333.892 226.228 333.449 226.449C333.007 226.671 332.557 226.781 332.102 226.781C331.516 226.781 331.001 226.658 330.559 226.41C330.116 226.163 329.738 225.831 329.426 225.414C329.126 224.997 328.898 224.509 328.742 223.949C328.599 223.376 328.527 222.764 328.527 222.113ZM330.598 210.668C330.598 210.486 330.526 210.329 330.383 210.199C330.253 210.056 330.096 209.984 329.914 209.984C329.732 209.984 329.576 210.056 329.445 210.199C329.315 210.329 329.25 210.486 329.25 210.668C329.25 210.85 329.315 211.007 329.445 211.137C329.576 211.267 329.732 211.332 329.914 211.332C330.096 211.332 330.253 211.267 330.383 211.137C330.526 211.007 330.598 210.85 330.598 210.668ZM348.02 220.59C347.876 220.889 347.694 221.247 347.473 221.664C347.264 222.068 347.023 222.491 346.75 222.934C346.477 223.376 346.171 223.819 345.832 224.262C345.493 224.691 345.122 225.082 344.719 225.434C344.328 225.772 343.905 226.046 343.449 226.254C343.007 226.475 342.531 226.586 342.023 226.586C341.242 226.586 340.572 226.345 340.012 225.863C339.452 225.382 338.977 224.75 338.586 223.969C338.195 223.188 337.876 222.302 337.629 221.312C337.395 220.31 337.212 219.294 337.082 218.266C336.952 217.224 336.861 216.215 336.809 215.238C336.77 214.262 336.75 213.396 336.75 212.641C336.75 211.547 336.783 210.414 336.848 209.242C336.926 208.07 337.043 206.924 337.199 205.805C337.355 204.685 337.551 203.624 337.785 202.621C338.033 201.618 338.319 200.74 338.645 199.984C338.983 199.229 339.367 198.63 339.797 198.188C340.227 197.745 340.715 197.523 341.262 197.523C341.691 197.523 342.076 197.628 342.414 197.836C342.766 198.031 343.059 198.357 343.293 198.812C343.527 199.268 343.71 199.861 343.84 200.59C343.97 201.319 344.035 202.211 344.035 203.266C344.035 204.568 343.898 205.915 343.625 207.309C343.352 208.689 342.98 210.082 342.512 211.488C342.043 212.895 341.49 214.301 340.852 215.707C340.214 217.1 339.53 218.461 338.801 219.789C339.126 221.443 339.562 222.745 340.109 223.695C340.656 224.633 341.314 225.102 342.082 225.102C342.603 225.102 343.104 224.9 343.586 224.496C344.068 224.079 344.51 223.591 344.914 223.031C345.318 222.471 345.669 221.905 345.969 221.332C346.281 220.746 346.522 220.277 346.691 219.926C346.757 219.796 346.848 219.698 346.965 219.633C347.082 219.555 347.212 219.516 347.355 219.516C347.577 219.516 347.753 219.594 347.883 219.75C348.026 219.906 348.098 220.082 348.098 220.277C348.098 220.355 348.072 220.46 348.02 220.59ZM338.234 212.738C338.234 213.572 338.254 214.372 338.293 215.141C338.332 215.909 338.384 216.645 338.449 217.348C338.996 216.293 339.517 215.173 340.012 213.988C340.507 212.79 340.943 211.586 341.32 210.375C341.698 209.151 341.997 207.94 342.219 206.742C342.453 205.531 342.57 204.379 342.57 203.285C342.57 201.749 342.447 200.648 342.199 199.984C341.952 199.32 341.62 198.988 341.203 198.988C340.93 198.988 340.663 199.177 340.402 199.555C340.155 199.932 339.921 200.447 339.699 201.098C339.478 201.749 339.276 202.517 339.094 203.402C338.911 204.288 338.755 205.238 338.625 206.254C338.508 207.27 338.41 208.331 338.332 209.438C338.267 210.544 338.234 211.645 338.234 212.738ZM363.078 220.316C363.716 223.324 364.641 224.828 365.852 224.828C366.32 224.828 366.77 224.659 367.199 224.32C367.629 223.969 368.026 223.546 368.391 223.051C368.768 222.543 369.1 222.009 369.387 221.449C369.673 220.889 369.908 220.401 370.09 219.984C370.22 219.672 370.448 219.516 370.773 219.516C370.982 219.516 371.158 219.594 371.301 219.75C371.444 219.906 371.516 220.076 371.516 220.258C371.516 220.362 371.496 220.453 371.457 220.531C371.366 220.753 371.229 221.052 371.047 221.43C370.878 221.794 370.663 222.191 370.402 222.621C370.155 223.038 369.875 223.467 369.562 223.91C369.25 224.353 368.905 224.75 368.527 225.102C368.15 225.453 367.746 225.746 367.316 225.98C366.9 226.202 366.457 226.312 365.988 226.312C365.116 226.312 364.367 226.013 363.742 225.414C363.117 224.802 362.577 223.799 362.121 222.406C361.496 223.734 360.865 224.698 360.227 225.297C359.589 225.896 358.898 226.195 358.156 226.195C357.766 226.195 357.388 226.13 357.023 226C356.659 225.883 356.34 225.681 356.066 225.395C355.793 225.108 355.572 224.743 355.402 224.301C355.233 223.845 355.148 223.292 355.148 222.641C355.148 221.742 355.305 220.915 355.617 220.16C355.93 219.405 356.333 218.76 356.828 218.227C357.323 217.68 357.87 217.257 358.469 216.957C359.081 216.658 359.686 216.508 360.285 216.508C360.48 216.508 360.65 216.579 360.793 216.723C360.936 216.853 361.008 217.022 361.008 217.23C361.008 217.413 360.949 217.576 360.832 217.719C360.715 217.862 360.559 217.947 360.363 217.973C359.973 218.025 359.556 218.148 359.113 218.344C358.671 218.539 358.26 218.826 357.883 219.203C357.518 219.568 357.212 220.036 356.965 220.609C356.73 221.182 356.613 221.866 356.613 222.66C356.613 223.311 356.743 223.819 357.004 224.184C357.277 224.548 357.668 224.73 358.176 224.73C358.384 224.73 358.605 224.678 358.84 224.574C359.074 224.457 359.322 224.236 359.582 223.91C359.855 223.585 360.148 223.122 360.461 222.523C360.786 221.924 361.145 221.137 361.535 220.16C361.314 219.014 361.112 217.693 360.93 216.195C360.747 214.698 360.656 213.025 360.656 211.176C360.656 210.368 360.682 209.529 360.734 208.656C360.786 207.771 360.871 206.911 360.988 206.078C361.105 205.232 361.262 204.431 361.457 203.676C361.652 202.921 361.887 202.257 362.16 201.684C362.447 201.111 362.779 200.661 363.156 200.336C363.534 199.997 363.964 199.828 364.445 199.828C364.875 199.828 365.24 199.945 365.539 200.18C365.839 200.414 366.079 200.74 366.262 201.156C366.457 201.573 366.6 202.074 366.691 202.66C366.783 203.246 366.828 203.891 366.828 204.594C366.828 206.104 366.698 207.615 366.438 209.125C366.177 210.635 365.852 212.081 365.461 213.461C365.083 214.841 364.68 216.117 364.25 217.289C363.82 218.461 363.43 219.47 363.078 220.316ZM365.363 204.574C365.363 204.249 365.35 203.897 365.324 203.52C365.311 203.142 365.266 202.79 365.188 202.465C365.122 202.126 365.031 201.846 364.914 201.625C364.797 201.404 364.641 201.293 364.445 201.293C364.12 201.293 363.814 201.579 363.527 202.152C363.254 202.725 363.013 203.48 362.805 204.418C362.596 205.342 362.427 206.397 362.297 207.582C362.18 208.754 362.121 209.939 362.121 211.137C362.121 212.283 362.167 213.428 362.258 214.574C362.349 215.72 362.453 216.742 362.57 217.641C362.948 216.638 363.306 215.609 363.645 214.555C363.983 213.487 364.276 212.4 364.523 211.293C364.784 210.186 364.986 209.073 365.129 207.953C365.285 206.82 365.363 205.694 365.363 204.574ZM372.453 223.852C372.727 224.229 373.078 224.535 373.508 224.77C373.938 224.991 374.465 225.102 375.09 225.102C375.728 225.102 376.307 224.952 376.828 224.652C377.349 224.34 377.824 223.936 378.254 223.441C378.684 222.947 379.068 222.393 379.406 221.781C379.745 221.169 380.051 220.557 380.324 219.945C380.389 219.802 380.48 219.698 380.598 219.633C380.715 219.555 380.845 219.516 380.988 219.516C381.21 219.516 381.385 219.594 381.516 219.75C381.659 219.906 381.73 220.076 381.73 220.258C381.73 220.323 381.724 220.382 381.711 220.434C381.698 220.473 381.678 220.518 381.652 220.57C380.754 222.549 379.771 224.04 378.703 225.043C377.648 226.046 376.451 226.56 375.109 226.586C374.25 226.586 373.508 226.417 372.883 226.078C372.258 225.753 371.743 225.329 371.34 224.809C370.936 224.275 370.637 223.676 370.441 223.012C370.246 222.348 370.148 221.684 370.148 221.02C370.148 220.355 370.227 219.743 370.383 219.184C370.552 218.624 370.786 218.135 371.086 217.719C371.398 217.302 371.763 216.977 372.18 216.742C372.609 216.508 373.078 216.391 373.586 216.391C373.885 216.391 374.178 216.456 374.465 216.586C374.764 216.703 375.031 216.879 375.266 217.113C375.5 217.335 375.689 217.608 375.832 217.934C375.975 218.259 376.047 218.63 376.047 219.047C376.047 219.581 375.956 220.082 375.773 220.551C375.591 221.02 375.337 221.456 375.012 221.859C374.699 222.263 374.322 222.634 373.879 222.973C373.436 223.311 372.961 223.604 372.453 223.852ZM371.867 222.582C372.271 222.413 372.635 222.198 372.961 221.938C373.299 221.677 373.586 221.391 373.82 221.078C374.055 220.766 374.237 220.44 374.367 220.102C374.497 219.75 374.562 219.398 374.562 219.047C374.562 218.656 374.465 218.363 374.27 218.168C374.074 217.96 373.846 217.855 373.586 217.855C373.234 217.855 372.935 217.953 372.688 218.148C372.44 218.344 372.238 218.598 372.082 218.91C371.926 219.223 371.809 219.574 371.73 219.965C371.665 220.342 371.633 220.72 371.633 221.098C371.633 221.332 371.652 221.579 371.691 221.84C371.743 222.1 371.802 222.348 371.867 222.582ZM422.844 222.68C422.818 222.706 422.714 222.816 422.531 223.012C422.349 223.207 422.076 223.448 421.711 223.734C421.359 224.008 420.917 224.307 420.383 224.633C419.862 224.958 419.243 225.258 418.527 225.531C417.811 225.792 416.997 226.013 416.086 226.195C415.188 226.378 414.185 226.469 413.078 226.469C412.115 226.469 411.151 226.391 410.188 226.234C409.237 226.078 408.286 225.883 407.336 225.648C406.398 225.414 405.474 225.154 404.562 224.867C403.651 224.581 402.759 224.307 401.887 224.047C400.22 224.854 398.625 225.447 397.102 225.824C395.591 226.202 394.224 226.391 393 226.391C392.193 226.391 391.496 226.306 390.91 226.137C390.337 225.98 389.862 225.772 389.484 225.512C389.107 225.238 388.827 224.932 388.645 224.594C388.475 224.242 388.391 223.884 388.391 223.52C388.391 223.168 388.482 222.816 388.664 222.465C388.846 222.113 389.12 221.801 389.484 221.527C389.849 221.241 390.311 221.007 390.871 220.824C391.431 220.642 392.089 220.551 392.844 220.551C393.404 220.551 394.016 220.603 394.68 220.707C395.357 220.811 396.066 220.954 396.809 221.137C397.564 221.306 398.352 221.508 399.172 221.742C400.005 221.964 400.852 222.204 401.711 222.465C402.609 221.996 403.521 221.456 404.445 220.844C405.37 220.219 406.255 219.535 407.102 218.793C407.961 218.038 408.762 217.23 409.504 216.371C410.246 215.499 410.891 214.581 411.438 213.617C411.984 212.641 412.414 211.618 412.727 210.551C413.052 209.483 413.215 208.376 413.215 207.23C413.215 205.85 412.987 204.613 412.531 203.52C412.076 202.413 411.431 201.482 410.598 200.727C409.764 199.958 408.762 199.372 407.59 198.969C406.431 198.565 405.142 198.363 403.723 198.363C403.007 198.363 402.251 198.441 401.457 198.598C400.676 198.754 399.901 198.988 399.133 199.301C398.365 199.6 397.629 199.978 396.926 200.434C396.236 200.889 395.624 201.417 395.09 202.016C394.556 202.615 394.133 203.285 393.82 204.027C393.508 204.757 393.352 205.557 393.352 206.43C393.352 206.99 393.404 207.51 393.508 207.992C393.612 208.474 393.729 208.904 393.859 209.281C393.99 209.646 394.107 209.939 394.211 210.16C394.328 210.382 394.4 210.512 394.426 210.551C394.491 210.681 394.523 210.805 394.523 210.922C394.523 211.104 394.458 211.273 394.328 211.43C394.198 211.586 394.016 211.664 393.781 211.664C393.495 211.664 393.28 211.54 393.137 211.293C393.137 211.28 393.072 211.15 392.941 210.902C392.811 210.642 392.668 210.29 392.512 209.848C392.355 209.405 392.212 208.891 392.082 208.305C391.952 207.719 391.887 207.087 391.887 206.41C391.887 205.434 392.049 204.522 392.375 203.676C392.714 202.816 393.169 202.035 393.742 201.332C394.315 200.616 394.986 199.984 395.754 199.438C396.522 198.891 397.349 198.428 398.234 198.051C399.12 197.66 400.038 197.367 400.988 197.172C401.939 196.977 402.876 196.879 403.801 196.879C405.415 196.879 406.893 197.126 408.234 197.621C409.576 198.103 410.721 198.793 411.672 199.691C412.635 200.59 413.378 201.677 413.898 202.953C414.432 204.229 414.699 205.655 414.699 207.23C414.699 208.715 414.432 210.199 413.898 211.684C413.365 213.168 412.609 214.594 411.633 215.961C410.669 217.328 409.51 218.617 408.156 219.828C406.815 221.026 405.337 222.1 403.723 223.051C404.595 223.311 405.461 223.565 406.32 223.812C407.18 224.047 408 224.255 408.781 224.438C409.576 224.607 410.331 224.743 411.047 224.848C411.763 224.952 412.427 225.004 413.039 225.004C414.51 225.004 415.78 224.841 416.848 224.516C417.928 224.19 418.82 223.832 419.523 223.441C420.24 223.038 420.773 222.667 421.125 222.328C421.477 221.99 421.665 221.801 421.691 221.762C421.848 221.579 422.043 221.488 422.277 221.488C422.486 221.488 422.655 221.566 422.785 221.723C422.928 221.866 423 222.035 423 222.23C423 222.387 422.948 222.536 422.844 222.68ZM399.699 223.402C398.397 223.025 397.16 222.706 395.988 222.445C394.829 222.172 393.827 222.035 392.98 222.035C392.486 222.035 392.043 222.081 391.652 222.172C391.275 222.263 390.949 222.38 390.676 222.523C390.415 222.654 390.214 222.81 390.07 222.992C389.927 223.174 389.855 223.35 389.855 223.52C389.855 223.676 389.914 223.839 390.031 224.008C390.148 224.177 390.331 224.327 390.578 224.457C390.839 224.587 391.164 224.698 391.555 224.789C391.945 224.867 392.421 224.906 392.98 224.906C393.931 224.906 394.973 224.783 396.105 224.535C397.251 224.288 398.449 223.91 399.699 223.402ZM449.641 212.621C449.641 213.975 449.471 215.284 449.133 216.547C448.794 217.797 448.312 218.969 447.688 220.062C447.076 221.143 446.333 222.133 445.461 223.031C444.602 223.93 443.645 224.698 442.59 225.336C441.548 225.974 440.422 226.469 439.211 226.82C438 227.172 436.743 227.348 435.441 227.348C434.139 227.348 432.883 227.172 431.672 226.82C430.461 226.469 429.328 225.974 428.273 225.336C427.232 224.698 426.275 223.93 425.402 223.031C424.543 222.133 423.801 221.143 423.176 220.062C422.564 218.969 422.089 217.797 421.75 216.547C421.411 215.284 421.242 213.975 421.242 212.621C421.242 211.267 421.411 209.965 421.75 208.715C422.089 207.452 422.564 206.28 423.176 205.199C423.801 204.105 424.543 203.109 425.402 202.211C426.275 201.312 427.232 200.544 428.273 199.906C429.328 199.268 430.461 198.773 431.672 198.422C432.883 198.07 434.139 197.895 435.441 197.895C436.743 197.895 438 198.07 439.211 198.422C440.422 198.773 441.548 199.268 442.59 199.906C443.645 200.544 444.602 201.312 445.461 202.211C446.333 203.109 447.076 204.105 447.688 205.199C448.312 206.28 448.794 207.452 449.133 208.715C449.471 209.965 449.641 211.267 449.641 212.621ZM448.176 212.621C448.176 211.41 448.02 210.238 447.707 209.105C447.408 207.973 446.984 206.918 446.438 205.941C445.891 204.952 445.227 204.053 444.445 203.246C443.664 202.439 442.805 201.749 441.867 201.176C440.93 200.603 439.914 200.16 438.82 199.848C437.74 199.522 436.613 199.359 435.441 199.359C434.27 199.359 433.143 199.522 432.062 199.848C430.982 200.16 429.966 200.603 429.016 201.176C428.078 201.749 427.219 202.439 426.438 203.246C425.669 204.053 425.005 204.952 424.445 205.941C423.898 206.918 423.469 207.973 423.156 209.105C422.857 210.238 422.707 211.41 422.707 212.621C422.707 213.832 422.857 215.004 423.156 216.137C423.469 217.27 423.898 218.331 424.445 219.32C425.005 220.297 425.669 221.189 426.438 221.996C427.219 222.803 428.078 223.493 429.016 224.066C429.966 224.639 430.982 225.089 432.062 225.414C433.143 225.727 434.27 225.883 435.441 225.883C436.613 225.883 437.74 225.727 438.82 225.414C439.914 225.089 440.93 224.639 441.867 224.066C442.805 223.493 443.664 222.803 444.445 221.996C445.227 221.189 445.891 220.297 446.438 219.32C446.984 218.331 447.408 217.276 447.707 216.156C448.02 215.023 448.176 213.845 448.176 212.621ZM485.266 222.68C485.24 222.706 485.135 222.816 484.953 223.012C484.771 223.207 484.497 223.448 484.133 223.734C483.781 224.008 483.339 224.307 482.805 224.633C482.284 224.958 481.665 225.258 480.949 225.531C480.233 225.792 479.419 226.013 478.508 226.195C477.609 226.378 476.607 226.469 475.5 226.469C474.536 226.469 473.573 226.391 472.609 226.234C471.659 226.078 470.708 225.883 469.758 225.648C468.82 225.414 467.896 225.154 466.984 224.867C466.073 224.581 465.181 224.307 464.309 224.047C462.642 224.854 461.047 225.447 459.523 225.824C458.013 226.202 456.646 226.391 455.422 226.391C454.615 226.391 453.918 226.306 453.332 226.137C452.759 225.98 452.284 225.772 451.906 225.512C451.529 225.238 451.249 224.932 451.066 224.594C450.897 224.242 450.812 223.884 450.812 223.52C450.812 223.168 450.904 222.816 451.086 222.465C451.268 222.113 451.542 221.801 451.906 221.527C452.271 221.241 452.733 221.007 453.293 220.824C453.853 220.642 454.51 220.551 455.266 220.551C455.826 220.551 456.438 220.603 457.102 220.707C457.779 220.811 458.488 220.954 459.23 221.137C459.986 221.306 460.773 221.508 461.594 221.742C462.427 221.964 463.273 222.204 464.133 222.465C465.031 221.996 465.943 221.456 466.867 220.844C467.792 220.219 468.677 219.535 469.523 218.793C470.383 218.038 471.184 217.23 471.926 216.371C472.668 215.499 473.312 214.581 473.859 213.617C474.406 212.641 474.836 211.618 475.148 210.551C475.474 209.483 475.637 208.376 475.637 207.23C475.637 205.85 475.409 204.613 474.953 203.52C474.497 202.413 473.853 201.482 473.02 200.727C472.186 199.958 471.184 199.372 470.012 198.969C468.853 198.565 467.564 198.363 466.145 198.363C465.428 198.363 464.673 198.441 463.879 198.598C463.098 198.754 462.323 198.988 461.555 199.301C460.786 199.6 460.051 199.978 459.348 200.434C458.658 200.889 458.046 201.417 457.512 202.016C456.978 202.615 456.555 203.285 456.242 204.027C455.93 204.757 455.773 205.557 455.773 206.43C455.773 206.99 455.826 207.51 455.93 207.992C456.034 208.474 456.151 208.904 456.281 209.281C456.411 209.646 456.529 209.939 456.633 210.16C456.75 210.382 456.822 210.512 456.848 210.551C456.913 210.681 456.945 210.805 456.945 210.922C456.945 211.104 456.88 211.273 456.75 211.43C456.62 211.586 456.438 211.664 456.203 211.664C455.917 211.664 455.702 211.54 455.559 211.293C455.559 211.28 455.493 211.15 455.363 210.902C455.233 210.642 455.09 210.29 454.934 209.848C454.777 209.405 454.634 208.891 454.504 208.305C454.374 207.719 454.309 207.087 454.309 206.41C454.309 205.434 454.471 204.522 454.797 203.676C455.135 202.816 455.591 202.035 456.164 201.332C456.737 200.616 457.408 199.984 458.176 199.438C458.944 198.891 459.771 198.428 460.656 198.051C461.542 197.66 462.46 197.367 463.41 197.172C464.361 196.977 465.298 196.879 466.223 196.879C467.837 196.879 469.315 197.126 470.656 197.621C471.997 198.103 473.143 198.793 474.094 199.691C475.057 200.59 475.799 201.677 476.32 202.953C476.854 204.229 477.121 205.655 477.121 207.23C477.121 208.715 476.854 210.199 476.32 211.684C475.786 213.168 475.031 214.594 474.055 215.961C473.091 217.328 471.932 218.617 470.578 219.828C469.237 221.026 467.759 222.1 466.145 223.051C467.017 223.311 467.883 223.565 468.742 223.812C469.602 224.047 470.422 224.255 471.203 224.438C471.997 224.607 472.753 224.743 473.469 224.848C474.185 224.952 474.849 225.004 475.461 225.004C476.932 225.004 478.202 224.841 479.27 224.516C480.35 224.19 481.242 223.832 481.945 223.441C482.661 223.038 483.195 222.667 483.547 222.328C483.898 221.99 484.087 221.801 484.113 221.762C484.27 221.579 484.465 221.488 484.699 221.488C484.908 221.488 485.077 221.566 485.207 221.723C485.35 221.866 485.422 222.035 485.422 222.23C485.422 222.387 485.37 222.536 485.266 222.68ZM462.121 223.402C460.819 223.025 459.582 222.706 458.41 222.445C457.251 222.172 456.249 222.035 455.402 222.035C454.908 222.035 454.465 222.081 454.074 222.172C453.697 222.263 453.371 222.38 453.098 222.523C452.837 222.654 452.635 222.81 452.492 222.992C452.349 223.174 452.277 223.35 452.277 223.52C452.277 223.676 452.336 223.839 452.453 224.008C452.57 224.177 452.753 224.327 453 224.457C453.26 224.587 453.586 224.698 453.977 224.789C454.367 224.867 454.842 224.906 455.402 224.906C456.353 224.906 457.395 224.783 458.527 224.535C459.673 224.288 460.871 223.91 462.121 223.402ZM498.625 211.293C499.51 211.592 500.35 211.977 501.145 212.445C501.952 212.901 502.661 213.448 503.273 214.086C503.885 214.711 504.367 215.44 504.719 216.273C505.083 217.094 505.266 218.018 505.266 219.047C505.266 220.128 505.103 221.104 504.777 221.977C504.452 222.836 504.009 223.598 503.449 224.262C502.889 224.926 502.238 225.499 501.496 225.98C500.754 226.449 499.966 226.833 499.133 227.133C498.299 227.432 497.44 227.654 496.555 227.797C495.682 227.94 494.829 228.012 493.996 228.012C492.85 228.012 491.789 227.914 490.812 227.719C489.849 227.536 488.977 227.302 488.195 227.016C487.427 226.742 486.75 226.443 486.164 226.117C485.578 225.792 485.083 225.486 484.68 225.199C484.289 224.913 483.99 224.672 483.781 224.477C483.586 224.268 483.482 224.158 483.469 224.145C483.339 224.014 483.273 223.852 483.273 223.656C483.273 223.448 483.345 223.272 483.488 223.129C483.632 222.986 483.801 222.914 483.996 222.914C484.217 222.914 484.4 222.992 484.543 223.148C484.543 223.148 484.628 223.233 484.797 223.402C484.979 223.559 485.246 223.767 485.598 224.027C485.949 224.275 486.392 224.548 486.926 224.848C487.46 225.134 488.078 225.408 488.781 225.668C489.484 225.915 490.272 226.124 491.145 226.293C492.017 226.462 492.974 226.547 494.016 226.547C495.396 226.547 496.678 226.378 497.863 226.039C499.061 225.714 500.096 225.232 500.969 224.594C501.854 223.956 502.544 223.174 503.039 222.25C503.534 221.312 503.781 220.251 503.781 219.066C503.781 218.103 503.586 217.25 503.195 216.508C502.818 215.766 502.297 215.121 501.633 214.574C500.969 214.014 500.194 213.546 499.309 213.168C498.423 212.79 497.479 212.484 496.477 212.25C495.656 212.549 494.777 212.797 493.84 212.992C492.915 213.174 492.004 213.266 491.105 213.266C490.064 213.266 489.315 213.142 488.859 212.895C488.417 212.647 488.195 212.315 488.195 211.898C488.195 211.807 488.221 211.671 488.273 211.488C488.326 211.306 488.475 211.124 488.723 210.941C488.97 210.759 489.348 210.603 489.855 210.473C490.363 210.342 491.073 210.277 491.984 210.277C492.609 210.277 493.299 210.31 494.055 210.375C494.81 210.44 495.598 210.557 496.418 210.727C497.368 210.349 498.202 209.906 498.918 209.398C499.647 208.891 500.253 208.363 500.734 207.816C501.216 207.257 501.574 206.697 501.809 206.137C502.056 205.577 502.18 205.056 502.18 204.574C502.18 203.741 502.004 203.005 501.652 202.367C501.301 201.716 500.839 201.169 500.266 200.727C499.693 200.284 499.029 199.952 498.273 199.73C497.518 199.496 496.743 199.379 495.949 199.379C494.829 199.379 493.788 199.509 492.824 199.77C491.861 200.03 490.988 200.355 490.207 200.746C489.426 201.137 488.729 201.566 488.117 202.035C487.518 202.491 487.017 202.914 486.613 203.305C486.21 203.695 485.897 204.027 485.676 204.301C485.467 204.561 485.363 204.691 485.363 204.691C485.298 204.796 485.207 204.874 485.09 204.926C484.986 204.978 484.875 205.004 484.758 205.004C484.549 205.004 484.374 204.932 484.23 204.789C484.1 204.633 484.035 204.464 484.035 204.281C484.035 204.125 484.081 203.982 484.172 203.852C484.198 203.826 484.328 203.656 484.562 203.344C484.81 203.031 485.161 202.66 485.617 202.23C486.073 201.788 486.626 201.312 487.277 200.805C487.941 200.297 488.703 199.828 489.562 199.398C490.422 198.969 491.379 198.611 492.434 198.324C493.488 198.038 494.641 197.895 495.891 197.895C496.867 197.895 497.818 198.038 498.742 198.324C499.667 198.611 500.493 199.04 501.223 199.613C501.952 200.173 502.538 200.87 502.98 201.703C503.423 202.536 503.645 203.5 503.645 204.594C503.645 205.206 503.521 205.824 503.273 206.449C503.039 207.061 502.701 207.66 502.258 208.246C501.828 208.819 501.301 209.366 500.676 209.887C500.064 210.408 499.38 210.876 498.625 211.293ZM494.211 211.586C493.703 211.508 493.143 211.469 492.531 211.469C492.01 211.469 491.522 211.501 491.066 211.566C490.611 211.632 490.285 211.716 490.09 211.82C490.22 211.885 490.389 211.931 490.598 211.957C490.806 211.97 491.04 211.977 491.301 211.977C491.757 211.977 492.245 211.944 492.766 211.879C493.299 211.801 493.781 211.703 494.211 211.586Z" fill="white"/>
</svg>
